<?xml version="1.0" encoding="iso-8859-1"?>
<!-- Generator: Adobe Illustrator 19.0.0, SVG Export Plug-In . SVG Version: 6.00 Build 0)  -->
<svg version="1.1" id="Layer_1" xmlns="http://www.w3.org/2000/svg" xmlns:xlink="http://www.w3.org/1999/xlink" x="0px" y="0px"
	 viewBox="0 0 511.999 511.999" style="enable-background:new 0 0 511.999 511.999;" xml:space="preserve">
<circle style="fill:#D7F3FF;" cx="256.003" cy="256.003" r="249.99"/>
<g>
	<path style="fill:#CCCCCC;" d="M473.862,305.917l20.768,24.773c-2.706,8.646-5.857,17.089-9.452,25.302L473.862,305.917z"/>
	<polygon style="fill:#CCCCCC;" points="451.674,355.799 458.168,384.529 442.619,384.529 424.063,362.402 411.833,308.274 	"/>
	<path style="fill:#CCCCCC;" d="M439.444,301.648l45.674,54.476c-3.704,8.49-7.877,16.728-12.471,24.689l-20.973-25.013
		L439.444,301.648z"/>
	<path style="fill:#CCCCCC;" d="M473.862,305.917l11.316,50.075c-0.012,0.048-0.036,0.084-0.06,0.132l-45.674-54.476l-11.376-50.352
		L473.862,305.917z"/>
	<polygon style="fill:#CCCCCC;" points="439.444,301.648 451.674,355.799 411.833,308.274 399.603,254.122 	"/>
	<polygon style="fill:#CCCCCC;" points="428.068,251.296 439.444,301.648 399.603,254.122 388.227,203.771 405.063,223.854 
		420.937,242.794 428.068,251.284 	"/>
	<polygon style="fill:#CCCCCC;" points="388.227,203.771 399.603,254.122 359.654,206.476 357.405,196.519 348.277,156.113 	"/>
	<polygon style="fill:#CCCCCC;" points="399.603,254.122 411.833,308.274 371.884,260.616 366.665,237.479 359.654,206.476 	"/>
	<polygon style="fill:#CCCCCC;" points="411.833,308.274 424.063,362.402 384.114,314.768 375.912,278.45 371.884,260.616 	"/>
	<polygon style="fill:#CCCCCC;" points="424.063,362.402 429.066,384.529 399.88,384.529 394.564,360.995 385.172,319.422 
		384.114,314.768 	"/>
</g>
<g>
	<polygon style="fill:#FFFFFF;" points="394.564,360.995 399.88,384.529 374.83,384.529 	"/>
	<polygon style="fill:#FFFFFF;" points="385.172,319.422 394.564,360.995 374.83,384.529 360.88,384.529 354.447,356.064 
		385.16,319.422 	"/>
	<polygon style="fill:#FFFFFF;" points="354.447,356.064 360.88,384.529 330.588,384.529 	"/>
	<polygon style="fill:#FFFFFF;" points="314.485,351.723 321.893,384.529 286.982,384.529 	"/>
	<polygon style="fill:#FFFFFF;" points="345.187,315.092 354.447,356.064 330.588,384.529 321.893,384.529 314.485,351.723 	"/>
	<polygon style="fill:#FFFFFF;" points="384.114,314.768 385.172,319.422 385.16,319.422 354.447,356.064 345.187,315.092 
		375.912,278.45 	"/>
	<polygon style="fill:#FFFFFF;" points="371.884,260.616 375.912,278.45 345.187,315.092 335.939,274.133 366.665,237.479 	"/>
	<polygon style="fill:#FFFFFF;" points="335.939,274.133 345.187,315.092 314.485,351.723 305.225,310.763 	"/>
	<polygon style="fill:#FFFFFF;" points="274.512,347.405 282.894,384.529 243.894,384.529 243.786,384.06 	"/>
	<polygon style="fill:#FFFFFF;" points="314.485,351.723 286.982,384.529 282.894,384.529 274.512,347.405 305.225,310.763 	"/>
	<polygon style="fill:#FFFFFF;" points="234.538,343.088 243.786,384.06 243.389,384.529 204.895,384.529 203.813,379.743 	"/>
	<polygon style="fill:#FFFFFF;" points="274.512,347.405 243.786,384.06 234.538,343.088 265.252,306.446 	"/>
	<polygon style="fill:#FFFFFF;" points="295.966,269.804 305.225,310.763 274.512,347.405 265.252,306.446 	"/>
	<polygon style="fill:#FFFFFF;" points="326.679,233.173 335.939,274.133 305.225,310.763 295.966,269.804 	"/>
	<polygon style="fill:#FFFFFF;" points="366.665,237.479 335.939,274.133 326.679,233.173 357.405,196.519 359.654,206.476 	"/>
	<polygon style="fill:#FFFFFF;" points="348.277,156.113 357.405,196.519 326.679,233.173 317.552,192.767 317.552,192.755 	"/>
	<polygon style="fill:#FFFFFF;" points="317.552,192.767 326.679,233.173 295.966,269.804 286.838,229.397 291.492,223.854 	"/>
	<polygon style="fill:#FFFFFF;" points="286.838,229.397 295.966,269.804 265.252,306.446 256.124,266.04 276.4,241.856 	"/>
	<polygon style="fill:#FFFFFF;" points="256.124,266.04 265.252,306.446 234.538,343.088 225.411,302.682 	"/>
	<polygon style="fill:#FFFFFF;" points="225.411,302.682 234.538,343.088 203.813,379.743 194.685,339.324 208.503,322.837 	"/>
	<polygon style="fill:#FFFFFF;" points="194.685,339.324 203.813,379.743 199.796,384.529 156.792,384.529 	"/>
</g>
<g>
	<path style="fill:#F4C290;" d="M505.585,241.856h-53.562v-18.002h51.915C504.696,229.794,505.249,235.795,505.585,241.856z"/>
	<polygon style="fill:#F4C290;" points="452.023,223.854 452.023,241.856 422.055,241.856 420.937,242.794 405.063,223.854 	"/>
	<polygon style="fill:#F4C290;" points="291.492,223.854 286.838,229.397 276.4,241.856 227.684,241.856 227.684,223.854 	"/>
	<rect x="168.516" y="223.858" style="fill:#F4C290;" width="59.166" height="18.002"/>
	<rect x="120.113" y="223.858" style="fill:#F4C290;" width="48.403" height="18.002"/>
</g>
<path style="fill:#F9D2AF;" d="M505.585,241.856c0.265,4.678,0.397,9.392,0.397,14.142c0,26.024-3.968,51.109-11.352,74.692
	l-20.768-24.773l-45.794-54.621v-0.012l-7.131-8.49l1.118-0.938h29.968H505.585z"/>
<polygon style="fill:#F4C290;" points="208.503,322.837 194.685,339.324 156.792,384.529 120.114,384.529 120.114,322.789 
	147.773,322.789 173.748,322.789 199.724,322.789 208.443,322.789 "/>
<polygon style="fill:#F9D2AF;" points="199.724,322.789 173.748,322.789 147.773,322.789 120.114,322.789 120.114,258.728 
	120.114,241.856 168.517,241.856 227.684,241.856 276.4,241.856 256.124,266.04 225.411,302.682 208.503,322.837 208.443,322.789 
	"/>
<path style="fill:#F4C290;" d="M120.114,202.207l-0.505,0.938L52.77,167.333l-36.438,17.353
	c4.967-16.716,11.641-32.698,19.806-47.754c5.315-1.347,10.895-2.068,16.632-2.068C89.965,134.863,120.114,165.012,120.114,202.207z
	"/>
<g>
	<path style="fill:#F9D2AF;" d="M120.114,203.41H11.558c1.359-6.338,2.946-12.579,4.774-18.724l36.438-17.353l66.839,35.813
		L120.114,203.41z"/>
	<path style="fill:#F9D2AF;" d="M93.657,258.728h-29.92H33.829H6.038c-0.024-0.914-0.024-1.816-0.024-2.73
		c0-18.039,1.912-35.632,5.544-52.588h108.556v20.444v18.002v16.872H93.657z"/>
</g>
<path style="fill:#F4C290;" d="M120.114,322.789v61.74H41.55c-11.46-19.073-20.444-39.793-26.505-61.74h18.784h29.908h29.92H120.114
	z"/>
<path style="fill:#F9D2AF;" d="M93.657,322.789h-29.92H33.829H15.045c-5.652-20.42-8.779-41.898-9.007-64.061h27.791h29.908h29.92
	h26.457v64.061H93.657z"/>
<path style="fill:#E6E6E6;" d="M458.168,384.529h12.278c-43.701,72.768-123.384,121.46-214.442,121.46S85.251,457.296,41.55,384.529
	h78.564h36.678h43.004h5.099h38.494h0.505h38.999h4.089h34.911h8.695h30.293h13.95h25.05h29.186h13.553H458.168z"/>
<g>
	<path style="fill:#333333;" d="M255.999,0C114.841,0,0,114.842,0,255.999s114.841,255.999,255.999,255.999
		s255.999-114.842,255.999-255.999S397.158,0,255.999,0z M16.505,209.423h97.596v43.293H99.67v-15.633
		c0-3.32-2.693-6.013-6.013-6.013s-6.013,2.693-6.013,6.013v15.633H69.754v-15.633c0-3.32-2.693-6.013-6.013-6.013
		c-3.32,0-6.013,2.693-6.013,6.013v15.633H39.838v-15.633c0-3.32-2.693-6.013-6.013-6.013c-3.32,0-6.013,2.693-6.013,6.013v15.633
		H12.068C12.264,237.933,13.779,223.466,16.505,209.423z M40.261,142.179c4.103-0.848,8.295-1.301,12.509-1.301
		c30.688,0,56.18,22.656,60.638,52.119L55.61,162.033c-1.686-0.902-3.7-0.951-5.425-0.129L26.509,173.18
		C30.382,162.479,34.99,152.127,40.261,142.179z M191.497,352.491l5.798,25.659l-0.307,0.366H169.68L191.497,352.491z
		 M173.748,293.603c-3.32,0-6.013,2.693-6.013,6.013v17.163h-13.951v-17.163c0-3.32-2.693-6.013-6.013-6.013
		s-6.013,2.693-6.013,6.013v17.163h-15.633v-68.911h137.385l-57.769,68.911h-0.005v-17.163c0-3.32-2.693-6.013-6.013-6.013
		s-6.013,2.693-6.013,6.013v17.163h-13.95v-17.163C179.761,296.295,177.069,293.603,173.748,293.603z M283.652,242.562l5.796,25.657
		l-21.009,25.063l-5.798-25.657L283.652,242.562z M421.539,378.516h-16.858l-9.238-40.895l23.074,27.518L421.539,378.516z
		 M326.694,378.516l-5.694-25.203l21.005-25.053l5.925,26.221l-20.148,24.036L326.694,378.516L326.694,378.516z M252.93,279.209
		l5.798,25.657l-21.002,25.053l-5.795-25.66L252.93,279.209z M262.059,319.609l5.925,26.22l-21.005,25.056l-5.923-26.221
		L262.059,319.609z M222.218,315.844l5.795,25.66l-21.009,25.062l-5.798-25.659L222.218,315.844z M231.344,356.249l5.029,22.267
		h-23.694L231.344,356.249z M271.315,360.575l4.054,17.941h-19.096L271.315,360.575z M378.646,317.838l-21.005,25.058l-5.924-26.22
		l21.006-25.054L378.646,317.838z M369.392,276.877l-21.008,25.056l-5.925-26.222l21.008-25.058L369.392,276.877z M338.674,313.516
		l-21.005,25.052l-5.924-26.22l21.003-25.053L338.674,313.516z M307.958,350.151l-21.008,25.056l-5.924-26.216l21.008-25.059
		L307.958,350.151z M311.289,364.896l3.077,13.62h-14.497L311.289,364.896z M351.262,369.226l2.1,9.29h-9.886L351.262,369.226z
		 M360.973,357.642l21.004-25.057l6.062,26.833l-16.016,19.098h-6.334L360.973,357.642z M391.369,374.161l0.984,4.354h-4.636
		L391.369,374.161z M389.655,312.002l-6.44-28.507l23.073,27.521l6.44,28.503L389.655,312.002z M377.428,257.872l-6.443-28.521
		l23.07,27.516l6.445,28.524L377.428,257.872z M360.137,235.906l-21.008,25.059l-5.926-26.224l21.009-25.062L360.137,235.906z
		 M329.417,272.549l-21.003,25.053l-5.924-26.224l21.002-25.053L329.417,272.549z M298.703,309.187l-21.009,25.059l-5.925-26.221
		l21.009-25.062L298.703,309.187z M450.642,378.516h-5.217l-15.822-18.87l-6.44-28.501l22.965,27.392L450.642,378.516z
		 M417.376,305.522l-6.445-28.525l22.967,27.395l6.443,28.524L417.376,305.522z M405.142,251.374l-5.59-24.738l22.97,27.401
		l5.587,24.734L405.142,251.374z M382.676,206.504l5.59,24.74l-23.069-27.516l-5.59-24.742L382.676,206.504z M345.086,169.28
		l5.795,25.654l-21.009,25.063l-5.796-25.654L345.086,169.28z M314.364,205.927l5.796,25.654l-21.002,25.053l-5.796-25.656
		L314.364,205.927z M273.593,235.842h-39.898v-5.976h44.906L273.593,235.842z M221.67,235.842h-47.135v-5.976h47.135L221.67,235.842
		L221.67,235.842z M162.509,235.842h-36.383v-5.976h36.383V235.842z M21.402,188.932L52.61,174.07l43.546,23.329H19.158
		C19.86,194.558,20.601,191.732,21.402,188.932z M114.101,264.741v52.038H99.67v-15.633c0-3.32-2.693-6.013-6.013-6.013
		s-6.013,2.693-6.013,6.013v15.633H69.754v-15.633c0-3.32-2.693-6.013-6.013-6.013c-3.32,0-6.013,2.693-6.013,6.013v15.633H39.838
		v-15.633c0-3.32-2.693-6.013-6.013-6.013c-3.32,0-6.013,2.693-6.013,6.013v15.633H19.69c-4.304-16.724-6.857-34.141-7.491-52.038
		H114.101z M114.101,328.804v49.712H45.09c-9.077-15.565-16.487-32.214-21.969-49.712H114.101z M126.127,328.804h69.534
		l-18.797,22.423v-6.843c0-3.32-2.693-6.013-6.013-6.013s-6.013,2.693-6.013,6.013v12.353c0,2.236,1.235,4.165,3.047,5.201
		l-13.899,16.58h-27.858v-49.714H126.127z M457.217,353.044l-6.443-28.525l27.272,32.528c-2.03,4.443-4.197,8.811-6.482,13.108
		L457.217,353.044z M486.692,335.419l-1.497-6.625l2.655,3.169C487.471,333.118,487.088,334.272,486.692,335.419z M468.318,308.662
		l5.588,24.732l-28.921-34.496l-5.587-24.732L468.318,308.662z M417.953,229.866h28.057v5.976h-23.047L417.953,229.866z
		 M458.036,229.866h40.536c0.213,1.984,0.399,3.977,0.564,5.976h-41.1V229.866z M255.999,12.026
		c121.548,0,222.611,89.35,240.983,205.815h-38.948v-3.608c0-3.32-2.693-6.013-6.013-6.013s-6.013,2.693-6.013,6.013v3.608h-38.138
		l-54.987-65.591c-1.142-1.363-2.83-2.15-4.608-2.15c-1.779,0-3.466,0.788-4.608,2.15l-54.986,65.591h-54.985v-3.608
		c0-3.32-2.693-6.013-6.013-6.013s-6.013,2.693-6.013,6.013v3.608h-47.135v-3.608c0-3.32-2.693-6.013-6.013-6.013
		c-3.32,0-6.013,2.693-6.013,6.013v3.608h-36.383v-8.418h7.215c3.32,0,6.013-2.693,6.013-6.013c0-3.32-2.693-6.013-6.013-6.013
		h-7.391c-2.488-38.214-34.35-68.546-73.181-68.546c-1.678,0-3.353,0.063-5.023,0.176C90.653,58.913,167.951,12.026,255.999,12.026z
		 M255.999,499.974c-84.838,0-159.687-43.535-203.416-109.43h406.832C415.686,456.439,340.837,499.974,255.999,499.974z
		 M491.946,318.13l-58.903-70.263h66.78c0.089,2.701,0.15,5.409,0.15,8.132C499.974,277.464,497.176,298.285,491.946,318.13z"/>
	<path style="fill:#333333;" d="M147.773,258.402c-3.32,0-6.013,2.693-6.013,6.013v12.353c0,3.32,2.693,6.013,6.013,6.013
		s6.013-2.693,6.013-6.013v-12.353C153.786,261.093,151.093,258.402,147.773,258.402z"/>
	<path style="fill:#333333;" d="M179.761,264.415c0-3.32-2.693-6.013-6.013-6.013s-6.013,2.693-6.013,6.013v12.353
		c0,3.32,2.693,6.013,6.013,6.013s6.013-2.693,6.013-6.013V264.415z"/>
	<path style="fill:#333333;" d="M199.724,282.779c3.32,0,6.013-2.693,6.013-6.013v-12.353c0-3.32-2.693-6.013-6.013-6.013
		s-6.013,2.693-6.013,6.013v12.353C193.711,280.088,196.404,282.779,199.724,282.779z"/>
	<path style="fill:#333333;" d="M225.701,282.779c3.32,0,6.013-2.693,6.013-6.013v-12.353c0-3.32-2.693-6.013-6.013-6.013
		s-6.013,2.693-6.013,6.013v12.353C219.688,280.088,222.38,282.779,225.701,282.779z"/>
	<path style="fill:#333333;" d="M472.467,258.402c-3.32,0-6.013,2.693-6.013,6.013v12.353c0,3.32,2.693,6.013,6.013,6.013
		s6.013-2.693,6.013-6.013v-12.353C478.48,261.093,475.787,258.402,472.467,258.402z"/>
	<path style="fill:#333333;" d="M147.014,338.373c-3.32,0-6.013,2.693-6.013,6.013v12.353c0,3.32,2.693,6.013,6.013,6.013
		s6.013-2.693,6.013-6.013v-12.353C153.027,341.064,150.334,338.373,147.014,338.373z"/>
	<path style="fill:#333333;" d="M48.108,362.75c3.32,0,6.013-2.693,6.013-6.013v-12.353c0-3.32-2.693-6.013-6.013-6.013
		c-3.32,0-6.013,2.693-6.013,6.013v12.353C42.095,360.059,44.787,362.75,48.108,362.75z"/>
	<path style="fill:#333333;" d="M78.024,362.75c3.32,0,6.013-2.693,6.013-6.013v-12.353c0-3.32-2.693-6.013-6.013-6.013
		c-3.32,0-6.013,2.693-6.013,6.013v12.353C72.011,360.059,74.702,362.75,78.024,362.75z"/>
</g>
<g>
</g>
<g>
</g>
<g>
</g>
<g>
</g>
<g>
</g>
<g>
</g>
<g>
</g>
<g>
</g>
<g>
</g>
<g>
</g>
<g>
</g>
<g>
</g>
<g>
</g>
<g>
</g>
<g>
</g>
</svg>
