<?xml version="1.0" encoding="iso-8859-1"?>
<!-- Generator: Adobe Illustrator 19.0.0, SVG Export Plug-In . SVG Version: 6.00 Build 0)  -->
<svg version="1.1" id="Layer_1" xmlns="http://www.w3.org/2000/svg" xmlns:xlink="http://www.w3.org/1999/xlink" x="0px" y="0px"
	 viewBox="0 0 512 512" style="enable-background:new 0 0 512 512;" xml:space="preserve">
<circle style="fill:#D7F3FF;" cx="256.003" cy="256.004" r="249.99"/>
<polygon style="fill:#F9EBCF;" points="265.144,309.237 280.777,309.237 299.056,309.237 314.69,309.237 348.602,309.237 
	407.119,309.237 407.119,325.471 348.602,325.471 332.969,325.471 314.69,325.471 299.056,325.471 280.777,325.471 265.144,325.471 
	246.865,325.471 231.231,325.471 212.952,325.471 197.319,325.471 179.04,325.471 163.406,325.471 104.877,325.471 104.877,309.237 
	163.406,309.237 197.319,309.237 212.952,309.237 231.231,309.237 246.865,309.237 "/>
<g>
	<circle style="fill:#CCBFAA;" cx="149.576" cy="202.814" r="12.627"/>
	<path style="fill:#CCBFAA;" d="M140.558,170.941l0.673,2.862c-5.724,1.275-11.22,3.884-15.994,7.829h-0.012v-52.781h9.621h5.712
		C140.558,128.851,140.558,170.941,140.558,170.941z"/>
	<path style="fill:#CCBFAA;" d="M173.929,128.851v52.781h-0.012c-4.774-3.944-10.27-6.554-15.994-7.829l0.673-2.862v-42.09h5.712
		C164.308,128.851,173.929,128.851,173.929,128.851z"/>
	<path style="fill:#CCBFAA;" d="M353.412,170.941l0.673,2.862c-5.724,1.275-11.22,3.884-15.994,7.829h-0.012v-52.781h9.621h5.712
		V170.941z"/>
	<path style="fill:#CCBFAA;" d="M386.784,128.851v52.781h-0.012c-4.774-3.944-10.27-6.554-15.994-7.829l0.673-2.862v-42.09h5.712
		C377.163,128.851,386.784,128.851,386.784,128.851z"/>
	<circle style="fill:#CCBFAA;" cx="362.43" cy="202.814" r="12.627"/>
	<polygon style="fill:#CCBFAA;" points="305.129,187.176 305.129,225.429 256.004,201.005 206.867,225.429 206.867,187.176 
		216.62,187.176 295.388,187.176 	"/>
</g>
<polygon style="fill:#F9EBCF;" points="323.745,234.677 314.69,234.677 299.056,234.677 280.777,234.677 265.144,234.677 
	246.865,234.677 231.231,234.677 212.952,234.677 197.319,234.677 188.251,234.677 206.867,225.429 256.004,201.005 
	305.129,225.429 "/>
<path style="fill:#AAA194;" d="M265.889,97.849v9.356h-19.782v-9.356c0-2.73,1.106-5.195,2.898-6.987
	c1.792-1.792,4.257-2.898,6.999-2.898C261.464,87.964,265.889,92.389,265.889,97.849z"/>
<path style="fill:#F9EBCF;" d="M265.889,107.205v25.302c-3.151-0.818-6.47-1.251-9.885-1.251c-3.415,0-6.734,0.433-9.897,1.251
	v-25.302H265.889z"/>
<path style="fill:#CCBFAA;" d="M295.388,170.64v16.535H216.62V170.64c0-2.237,0.18-4.425,0.541-6.554h0.012h77.674
	C295.208,166.215,295.388,168.404,295.388,170.64z"/>
<path style="fill:#AAA194;" d="M294.847,164.086h-77.674h-0.012c2.574-15.369,14.046-27.719,28.946-31.579
	c3.163-0.818,6.482-1.251,9.897-1.251c3.415,0,6.734,0.433,9.885,1.251C280.789,136.367,292.274,148.718,294.847,164.086z"/>
<g>
	<path style="fill:#F9EBCF;" d="M161.482,92.377l2.826,36.474h-5.712h-18.039h-5.712l2.814-36.474
		c0.481-6.217,5.676-11.028,11.917-11.028C155.818,81.35,161.001,86.16,161.482,92.377z"/>
	<path style="fill:#F9EBCF;" d="M374.337,92.377l2.826,36.474h-5.712h-18.039H347.7l2.814-36.474
		c0.481-6.217,5.676-11.028,11.917-11.028S373.856,86.16,374.337,92.377z"/>
	<path style="fill:#F9EBCF;" d="M371.451,128.851v42.09l-0.673,2.862c-5.496-1.239-11.196-1.239-16.692,0l-0.673-2.862v-42.09
		C353.412,128.851,371.451,128.851,371.451,128.851z"/>
	<path style="fill:#F9EBCF;" d="M158.596,128.851v42.09l-0.673,2.862c-5.496-1.239-11.196-1.239-16.692,0l-0.673-2.862v-42.09
		C140.558,128.851,158.596,128.851,158.596,128.851z"/>
	<path style="fill:#F9EBCF;" d="M182.347,188.98v45.698h-18.94h-46.6V188.98h8.418v-7.348h0.012
		c4.774-3.944,10.27-6.554,15.994-7.829c5.496-1.239,11.196-1.239,16.692,0c5.724,1.275,11.22,3.884,15.994,7.829h0.012v7.348
		H182.347z M162.204,202.809c0-6.975-5.652-12.627-12.627-12.627c-6.975,0-12.627,5.652-12.627,12.627
		c0,6.975,5.652,12.627,12.627,12.627C156.552,215.436,162.204,209.784,162.204,202.809z"/>
	<path style="fill:#F9EBCF;" d="M395.202,188.98v45.698h-46.6h-18.94V188.98h8.418v-7.348h0.012
		c4.774-3.944,10.27-6.554,15.994-7.829c5.496-1.239,11.196-1.239,16.692,0c5.724,1.275,11.22,3.884,15.994,7.829h0.012v7.348
		H395.202z M375.059,202.809c0-6.975-5.652-12.627-12.627-12.627s-12.627,5.652-12.627,12.627c0,6.975,5.652,12.627,12.627,12.627
		S375.059,209.784,375.059,202.809z"/>
</g>
<g>
	<path style="fill:#CCBFAA;" d="M388.888,356.437v28.561h-22.248v-28.561c0-6.145,4.979-11.124,11.124-11.124
		S388.888,350.292,388.888,356.437z"/>
	<path style="fill:#CCBFAA;" d="M145.368,356.437v28.561H123.12v-28.561c0-6.145,4.979-11.124,11.124-11.124
		C140.389,345.314,145.368,350.292,145.368,356.437z"/>
</g>
<g>
	<polygon style="fill:#F9EBCF;" points="407.119,235.483 407.119,309.237 348.602,309.237 348.602,235.88 348.602,234.677 
		395.202,234.677 407.119,234.677 	"/>
	<path style="fill:#F9EBCF;" d="M407.119,325.471v74.704h-48.476h-10.041v-2.598v-15.585v-56.521H407.119z M388.888,384.998v-28.561
		c0-6.145-4.979-11.124-11.124-11.124s-11.124,4.979-11.124,11.124v28.561H388.888z"/>
</g>
<path style="fill:#999999;" d="M407.119,400.175h53.118c-45.265,64.013-119.872,105.814-204.232,105.814
	c-84.372,0-158.98-41.801-204.244-105.814h53.117h48.476c-12.242,7.107-19.349,15.573-19.349,24.653
	c0,25.182,54.621,45.601,122.001,45.601c67.368,0,121.989-20.42,121.989-45.601c0-9.079-7.107-17.546-19.349-24.653H407.119z"/>
<path style="fill:#B3B3B3;" d="M358.643,400.175c12.242,7.107,19.349,15.573,19.349,24.653c0,25.182-54.621,45.601-121.989,45.601
	c-67.38,0-122.001-20.42-122.001-45.601c0-9.079,7.107-17.546,19.349-24.653h10.053h185.196H358.643z"/>
<rect x="332.967" y="325.476" style="fill:#F9EBCF;" width="15.633" height="56.521"/>
<g>
	<polygon style="fill:#CCBFAA;" points="348.602,235.88 348.602,309.237 314.69,309.237 314.69,235.88 314.69,234.677 
		323.745,234.677 329.662,234.677 348.602,234.677 	"/>
	<rect x="314.688" y="325.476" style="fill:#CCBFAA;" width="18.279" height="56.521"/>
</g>
<g>
	<rect x="299.055" y="325.476" style="fill:#F9EBCF;" width="15.633" height="56.521"/>
	<polygon style="fill:#F9EBCF;" points="314.69,235.88 314.69,309.237 299.056,309.237 299.056,235.88 299.056,234.677 
		314.69,234.677 	"/>
</g>
<g>
	<rect x="280.776" y="325.476" style="fill:#CCBFAA;" width="18.279" height="56.521"/>
	<polygon style="fill:#CCBFAA;" points="299.056,235.88 299.056,309.237 280.777,309.237 280.777,235.88 280.777,234.677 
		299.056,234.677 	"/>
</g>
<g>
	<rect x="265.143" y="325.476" style="fill:#F9EBCF;" width="15.633" height="56.521"/>
	<polygon style="fill:#F9EBCF;" points="280.777,235.88 280.777,309.237 265.144,309.237 265.144,235.88 265.144,234.677 
		280.777,234.677 	"/>
</g>
<g>
	<rect x="246.863" y="325.476" style="fill:#CCBFAA;" width="18.279" height="56.521"/>
	<polygon style="fill:#CCBFAA;" points="265.144,235.88 265.144,309.237 246.865,309.237 246.865,235.88 246.865,234.677 
		265.144,234.677 	"/>
</g>
<g>
	<rect x="231.23" y="325.476" style="fill:#F9EBCF;" width="15.633" height="56.521"/>
	<polygon style="fill:#F9EBCF;" points="246.865,235.88 246.865,309.237 231.231,309.237 231.231,235.88 231.231,234.677 
		246.865,234.677 	"/>
</g>
<g>
	<rect x="212.951" y="325.476" style="fill:#CCBFAA;" width="18.279" height="56.521"/>
	<polygon style="fill:#CCBFAA;" points="231.231,235.88 231.231,309.237 212.952,309.237 212.952,235.88 212.952,234.677 
		231.231,234.677 	"/>
</g>
<g>
	<rect x="197.318" y="325.476" style="fill:#F9EBCF;" width="15.633" height="56.521"/>
	<polygon style="fill:#F9EBCF;" points="212.952,235.88 212.952,309.237 197.319,309.237 197.319,235.88 197.319,234.677 
		212.952,234.677 	"/>
</g>
<g>
	<rect x="179.039" y="325.476" style="fill:#CCBFAA;" width="18.279" height="56.521"/>
	<polygon style="fill:#CCBFAA;" points="197.319,235.88 197.319,309.237 163.406,309.237 163.406,235.88 163.406,234.677 
		182.347,234.677 188.251,234.677 197.319,234.677 	"/>
</g>
<g>
	<rect x="163.405" y="325.476" style="fill:#F9EBCF;" width="15.633" height="56.521"/>
	<path style="fill:#F9EBCF;" d="M163.406,397.577v2.598h-10.053h-48.476v-74.704h58.529v56.521V397.577z M145.368,384.998v-28.561
		c0-6.145-4.979-11.124-11.124-11.124c-6.145,0-11.124,4.979-11.124,11.124v28.561H145.368z"/>
	<polygon style="fill:#F9EBCF;" points="163.406,235.88 163.406,309.237 104.877,309.237 104.877,235.483 104.877,234.677 
		116.807,234.677 163.406,234.677 	"/>
</g>
<g>
	<path style="fill:#333333;" d="M256.001,0.001C114.842,0.001,0,114.842,0,256s114.842,255.999,256.001,255.999S512,397.158,512,256
		S397.159,0.001,256.001,0.001z M256.001,12.026c134.528,0,243.974,109.446,243.974,243.974c0,51.253-15.899,98.856-43.006,138.162
		h-43.831v-78.913h0.801c3.321,0,6.013-2.693,6.013-6.013s-2.691-6.013-6.013-6.013h-0.801V240.69h0.801
		c3.321,0,6.013-2.693,6.013-6.013s-2.691-6.013-6.013-6.013h-12.727V188.98c0-3.32-2.691-6.013-6.013-6.013h-2.405v-54.116
		c0-3.32-2.691-6.013-6.013-6.013h-4.054l-2.388-30.924c-0.558-7.2-5.409-13.174-11.897-15.51V62.109
		c0-3.32-2.691-6.013-6.013-6.013c-3.322,0-6.013,2.693-6.013,6.013v14.296c-6.488,2.337-11.339,8.311-11.897,15.511l-2.388,30.923
		h-4.054c-3.321,0-6.013,2.693-6.013,6.013v54.116h-2.405c-3.322,0-6.013,2.693-6.013,6.013v38.933l-12.502-6.214v-34.523
		c0-3.32-2.691-6.013-6.013-6.013h-3.734V170.64c0-19.438-12.283-36.055-29.492-42.514v-30.27c0-6.642-4.096-12.338-9.892-14.716
		V72.933c0-3.32-2.691-6.013-6.013-6.013c-3.322,0-6.013,2.693-6.013,6.013v10.209c-5.795,2.377-9.891,8.074-9.891,14.716v30.27
		c-17.21,6.459-29.493,23.076-29.493,42.516v10.522h-3.733c-3.321,0-6.013,2.693-6.013,6.013v34.525l-12.499,6.212v-38.933
		c0-3.32-2.691-6.013-6.013-6.013h-2.405v-54.116c0-3.32-2.691-6.013-6.013-6.013h-4.054l-2.388-30.924
		c-0.558-7.2-5.409-13.174-11.897-15.51V62.109c0-3.32-2.691-6.013-6.013-6.013s-6.013,2.693-6.013,6.013v14.296
		c-6.488,2.337-11.339,8.311-11.897,15.511l-2.388,30.923h-4.054c-3.322,0-6.013,2.693-6.013,6.013v54.116h-2.405
		c-3.321,0-6.013,2.693-6.013,6.013v39.685H98.064c-3.322,0-6.013,2.693-6.013,6.013s2.691,6.013,6.013,6.013h0.801v62.534h-0.801
		c-3.322,0-6.013,2.693-6.013,6.013c0,3.32,2.691,6.013,6.013,6.013h0.801v78.913H55.032C27.925,354.856,12.026,307.253,12.026,256
		C12.026,121.472,121.473,12.026,256.001,12.026z M371.98,424.829c0,18.725-47.629,39.589-115.976,39.589
		c-68.354,0-115.988-20.863-115.988-39.589c0-6.139,5.321-12.722,15.006-18.64h201.953
		C366.659,412.106,371.98,418.688,371.98,424.829z M143.654,92.843c0.237-3.073,2.837-5.48,5.919-5.48s5.682,2.406,5.919,5.479
		l2.317,29.997h-16.472L143.654,92.843z M252.12,97.856c0-2.138,1.739-3.878,3.878-3.878c2.139,0,3.88,1.74,3.88,3.878v3.337h-7.757
		v-3.337H252.12z M252.12,113.218h7.757v12.202c-1.28-0.109-2.571-0.177-3.879-0.177c-1.307,0-2.599,0.069-3.878,0.177v-12.202
		H252.12z M255.998,137.269c13.956,0,25.932,8.615,30.906,20.803h-61.812C230.066,145.886,242.042,137.269,255.998,137.269z
		 M356.509,92.843c0.237-3.073,2.837-5.48,5.919-5.48c3.082,0,5.682,2.406,5.919,5.479l2.317,29.997h-16.472L356.509,92.843z
		 M191.302,240.69v62.534h-21.887V240.69H191.302z M203.328,240.69h3.608v62.534h-3.608V240.69z M218.961,240.69h6.252v62.534
		h-6.252V240.69z M237.239,240.69h3.608v62.534h-3.608V240.69z M252.873,240.69h6.253v62.534h-6.253V240.69z M271.153,240.69h3.608
		v62.534h-3.608V240.69z M286.786,240.69h6.253v62.534h-6.253V240.69z M305.065,240.69h3.608v62.534h-3.608V240.69L305.065,240.69z
		 M320.699,240.69h21.887v62.534h-21.887V240.69z M354.611,240.69h46.5v62.534h-46.5V240.69z M359.422,134.864h6.013v32.123
		c-2.002-0.136-4.011-0.136-6.013,0V134.864z M377.46,134.864h3.307v35.982c-1.087-0.495-2.191-0.939-3.307-1.342V134.864z
		 M344.089,134.864h3.307v34.64c-1.116,0.403-2.22,0.847-3.307,1.342V134.864z M335.671,194.992h2.405
		c3.322,0,6.013-2.693,6.013-6.013v-4.347c11.002-7.639,25.676-7.639,36.678,0v4.347c0,3.32,2.691,6.013,6.013,6.013h2.405v33.672
		h-53.514V194.992z M222.627,170.64c0-0.182,0.011-0.361,0.013-0.542h66.715c0.002,0.182,0.013,0.361,0.013,0.542v10.522h-66.743
		V170.64H222.627z M212.88,193.189h3.733h78.768h3.734v22.533l-40.44-20.101c-1.686-0.837-3.667-0.837-5.353,0l-40.444,20.102
		v-22.534H212.88z M256.001,207.72l42.138,20.945h-84.276L256.001,207.72z M146.567,134.864h6.013v32.123
		c-2.002-0.136-4.011-0.136-6.013,0V134.864z M164.605,134.864h3.307v35.982c-1.087-0.495-2.191-0.939-3.307-1.342V134.864z
		 M131.234,134.864h3.307v34.64c-1.116,0.403-2.22,0.847-3.307,1.342V134.864z M122.816,194.992h2.405
		c3.321,0,6.013-2.693,6.013-6.013v-4.347c11.002-7.639,25.676-7.639,36.678,0v4.347c0,3.32,2.691,6.013,6.013,6.013h2.405v33.672
		h-53.514C122.816,228.664,122.816,194.992,122.816,194.992z M157.39,240.69v62.534h-46.5V240.69H157.39z M401.111,315.249v4.209
		H110.89v-4.209H401.111z M173.023,331.484v44.495h-3.608v-44.495H173.023z M169.416,388.005h173.17v3.562h-173.17L169.416,388.005
		L169.416,388.005z M320.699,375.979v-44.495h6.253v44.495H320.699z M308.673,375.979h-3.608v-44.495h3.608V375.979z
		 M293.04,375.979h-6.253v-44.495h6.253V375.979z M274.761,375.979h-3.608v-44.495h3.608V375.979z M259.127,375.979h-6.253v-44.495
		h6.253V375.979z M240.847,375.979h-3.608v-44.495h3.608V375.979z M225.214,375.979h-6.252v-44.495h6.252V375.979z M206.936,375.979
		h-3.608v-44.495h3.608V375.979z M191.302,375.979h-6.253v-44.495h6.253V375.979z M342.586,375.979h-3.608v-44.495h3.608V375.979z
		 M110.89,331.484h46.5v50.508v12.17h-46.5V331.484z M354.611,394.163v-12.17v-50.508h46.5v62.678H354.611z M256.001,499.975
		c-77.931,0-147.441-36.731-192.138-93.786h72.089c-6.303,6.98-7.961,13.606-7.961,18.64c0,14.87,14.077,28.32,39.64,37.876
		c23.7,8.859,55.086,13.738,88.373,13.738c33.282,0,64.663-4.879,88.364-13.738c25.562-9.556,39.639-23.008,39.639-37.876
		c0-5.034-1.658-11.66-7.961-18.64h72.093C403.442,463.244,333.932,499.975,256.001,499.975z"/>
	<path style="fill:#333333;" d="M134.24,339.301c-9.449,0-17.137,7.688-17.137,17.137v28.561c0,3.32,2.691,6.013,6.013,6.013h22.248
		c3.321,0,6.013-2.693,6.013-6.013v-28.561C151.377,346.989,143.689,339.301,134.24,339.301z M139.351,378.986H129.13v-22.548
		c0-2.818,2.292-5.111,5.111-5.111c2.819,0,5.111,2.293,5.111,5.111V378.986z"/>
	<path style="fill:#333333;" d="M377.761,339.301c-9.449,0-17.137,7.688-17.137,17.137v28.561c0,3.32,2.691,6.013,6.013,6.013
		h22.248c3.322,0,6.013-2.693,6.013-6.013v-28.561C394.897,346.989,387.209,339.301,377.761,339.301z M382.872,378.986H372.65
		v-22.548c0-2.818,2.292-5.111,5.111-5.111s5.111,2.293,5.111,5.111V378.986z"/>
	<path style="fill:#333333;" d="M377.761,258.729c-3.322,0-6.013,2.693-6.013,6.013v18.039c0,3.32,2.691,6.013,6.013,6.013
		c3.321,0,6.013-2.693,6.013-6.013v-18.039C383.774,261.421,381.082,258.729,377.761,258.729z"/>
	<path style="fill:#333333;" d="M134.24,288.793c3.322,0,6.013-2.693,6.013-6.013v-18.039c0-3.32-2.691-6.013-6.013-6.013
		c-3.321,0-6.013,2.693-6.013,6.013v18.039C128.228,286.102,130.919,288.793,134.24,288.793z"/>
	<path style="fill:#333333;" d="M362.428,184.169c-10.278,0-18.64,8.361-18.64,18.64c0,10.278,8.361,18.64,18.64,18.64
		s18.64-8.361,18.64-18.64C381.068,192.531,372.706,184.169,362.428,184.169z M362.428,209.423c-3.646,0-6.614-2.967-6.614-6.614
		s2.968-6.614,6.614-6.614s6.614,2.967,6.614,6.614S366.074,209.423,362.428,209.423z"/>
	<path style="fill:#333333;" d="M149.573,184.169c-10.278,0-18.64,8.361-18.64,18.64c0,10.278,8.361,18.64,18.64,18.64
		s18.64-8.361,18.64-18.64C168.213,192.531,159.852,184.169,149.573,184.169z M149.573,209.423c-3.646,0-6.614-2.967-6.614-6.614
		s2.968-6.614,6.614-6.614c3.646,0,6.614,2.967,6.614,6.614S153.219,209.423,149.573,209.423z"/>
</g>
<g>
</g>
<g>
</g>
<g>
</g>
<g>
</g>
<g>
</g>
<g>
</g>
<g>
</g>
<g>
</g>
<g>
</g>
<g>
</g>
<g>
</g>
<g>
</g>
<g>
</g>
<g>
</g>
<g>
</g>
</svg>
